<svg width="800" height="800" viewBox="0 0 800 800" fill="none" xmlns="http://www.w3.org/2000/svg">
<path d="M715.152 433.056C695.069 433.056 678.788 449.337 678.788 469.42H121.212C121.212 449.337 104.931 433.056 84.8484 433.056C64.7656 433.056 48.4844 449.337 48.4844 469.42V751.516C48.4844 771.598 64.7656 787.88 84.8484 787.88H715.152C735.234 787.88 751.516 771.598 751.516 751.516V469.42C751.516 449.337 735.234 433.056 715.152 433.056Z" fill="#AA5527"/>
<path d="M545.455 230.303H254.545C234.462 230.303 218.181 214.022 218.181 193.939V48.4844C218.181 28.4016 234.462 12.1203 254.545 12.1203H545.455C565.537 12.1203 581.819 28.4016 581.819 48.4844V193.939C581.819 214.022 565.537 230.303 545.455 230.303ZM290.909 157.575H509.091V84.8484H290.909V157.575Z" fill="#AA5527"/>
<path d="M545.455 12.1219H400V84.8484H509.091V157.575H400V230.302H545.455C565.538 230.302 581.819 214.02 581.819 193.938V48.4844C581.819 28.4031 565.538 12.1219 545.455 12.1219Z" fill="#672815"/>
<path d="M715.152 433.056C695.069 433.056 678.788 449.337 678.788 469.42H400V787.878H715.152C735.234 787.878 751.516 771.597 751.516 751.514V469.42C751.516 449.337 735.234 433.056 715.152 433.056Z" fill="#672815"/>
<path d="M763.636 157.575H36.3641C16.2813 157.575 0 173.856 0 193.939V460.606C0 478.181 12.5703 493.239 29.8562 496.383L296.523 544.867C316.287 548.463 335.214 535.355 338.805 515.597C339.202 513.411 339.363 511.238 339.367 509.091H460.63C460.633 511.239 460.792 513.408 461.192 515.597C464.383 533.158 479.689 545.461 496.925 545.461C499.084 545.461 501.273 545.267 503.473 544.867L770.141 496.383C787.43 493.239 800 478.181 800 460.606V193.939C800 173.856 783.719 157.575 763.636 157.575Z" fill="#B66D38"/>
<path d="M763.636 157.575H400V509.091H460.633C460.636 511.239 460.795 513.408 461.195 515.597C464.386 533.158 479.692 545.461 496.928 545.461C499.087 545.461 501.277 545.267 503.477 544.867L770.144 496.383C787.43 493.239 800 478.181 800 460.606V193.939C800 173.856 783.719 157.575 763.636 157.575Z" fill="#AA5527"/>
<path d="M496.97 400H303.03C282.947 400 266.666 416.281 266.666 436.364V581.819C266.666 601.902 282.947 618.183 303.03 618.183H496.969C517.051 618.183 533.333 601.902 533.333 581.819V436.364C533.333 416.281 517.051 400 496.97 400Z" fill="#F4D371"/>
<path d="M496.97 618.181C517.053 618.181 533.334 601.9 533.334 581.817V436.362C533.334 416.28 517.053 399.998 496.97 399.998H400V618.18L496.97 618.181Z" fill="#E9A35F"/>
</svg>
